<svg width="500" height="500" viewBox="0 0 500 500" fill="none" xmlns="http://www.w3.org/2000/svg">
<rect width="500" height="500" fill="#007BFF"/>
<path d="M149.228 330.581C102.873 368.635 88.0506 373.259 35.625 391C125.566 376.672 116.065 376.179 162.302 351.624L149.228 330.581Z" fill="white"/>
<path d="M166.501 357.619C141.848 377.858 133.965 380.317 106.084 389.752C153.917 382.132 148.864 381.87 173.454 368.811L166.501 357.619Z" fill="white"/>
<g filter="url(#filter0_d_24_26)">
<path d="M404.083 178.311L294.715 130.205L142.797 178.311L171.081 320.19L256.673 374.163L413.116 320.19L404.083 178.311Z" fill="white"/>
<path d="M241.677 232.718L257.96 372.128L411.53 319.147L402.693 180.342L241.677 232.718ZM172.445 319.323L254.811 371.261L238.611 232.559L144.896 181.127L172.445 319.323ZM146.541 178.7L240.129 230.062L399.934 178.08L294.688 131.787L146.541 178.7Z" stroke="#007BFF" stroke-width="3"/>
</g>
<path d="M300.325 215.872L259.585 188.055L291.272 177.357L334.276 205.173L343.329 260.806L311.642 271.504L300.325 215.872Z" fill="#007BFF" stroke="#007BFF"/>
<defs>
<filter id="filter0_d_24_26" x="138.797" y="130.204" width="278.319" height="251.959" filterUnits="userSpaceOnUse" color-interpolation-filters="sRGB">
<feFlood flood-opacity="0" result="BackgroundImageFix"/>
<feColorMatrix in="SourceAlpha" type="matrix" values="0 0 0 0 0 0 0 0 0 0 0 0 0 0 0 0 0 0 127 0" result="hardAlpha"/>
<feOffset dy="4"/>
<feGaussianBlur stdDeviation="2"/>
<feComposite in2="hardAlpha" operator="out"/>
<feColorMatrix type="matrix" values="0 0 0 0 0 0 0 0 0 0 0 0 0 0 0 0 0 0 0.25 0"/>
<feBlend mode="normal" in2="BackgroundImageFix" result="effect1_dropShadow_24_26"/>
<feBlend mode="normal" in="SourceGraphic" in2="effect1_dropShadow_24_26" result="shape"/>
</filter>
</defs>
</svg>
