<svg width="500" height="500" viewBox="0 0 500 500" fill="none" xmlns="http://www.w3.org/2000/svg">
<rect width="500" height="500" fill="white"/>
<g filter="url(#filter0_d_23_12)">
<path d="M81.5 278.4C75.9 278.4 70.5333 277.667 65.4 276.2C60.2667 274.667 56.1333 272.7 53 270.3L58.5 258.1C61.5 260.233 65.0333 262 69.1 263.4C73.2333 264.733 77.4 265.4 81.6 265.4C84.8 265.4 87.3667 265.1 89.3 264.5C91.3 263.833 92.7667 262.933 93.7 261.8C94.6333 260.667 95.1 259.367 95.1 257.9C95.1 256.033 94.3667 254.567 92.9 253.5C91.4333 252.367 89.5 251.467 87.1 250.8C84.7 250.067 82.0333 249.4 79.1 248.8C76.2333 248.133 73.3333 247.333 70.4 246.4C67.5333 245.467 64.9 244.267 62.5 242.8C60.1 241.333 58.1333 239.4 56.6 237C55.1333 234.6 54.4 231.533 54.4 227.8C54.4 223.8 55.4667 220.167 57.6 216.9C59.8 213.567 63.0667 210.933 67.4 209C71.8 207 77.3 206 83.9 206C88.3 206 92.6333 206.533 96.9 207.6C101.167 208.6 104.933 210.133 108.2 212.2L103.2 224.5C99.9333 222.633 96.6667 221.267 93.4 220.4C90.1333 219.467 86.9333 219 83.8 219C80.6667 219 78.1 219.367 76.1 220.1C74.1 220.833 72.6667 221.8 71.8 223C70.9333 224.133 70.5 225.467 70.5 227C70.5 228.8 71.2333 230.267 72.7 231.4C74.1667 232.467 76.1 233.333 78.5 234C80.9 234.667 83.5333 235.333 86.4 236C89.3333 236.667 92.2333 237.433 95.1 238.3C98.0333 239.167 100.7 240.333 103.1 241.8C105.5 243.267 107.433 245.2 108.9 247.6C110.433 250 111.2 253.033 111.2 256.7C111.2 260.633 110.1 264.233 107.9 267.5C105.7 270.767 102.4 273.4 98 275.4C93.6667 277.4 88.1667 278.4 81.5 278.4Z" fill="#007BFF"/>
<path d="M153.87 222.6C158.136 222.6 161.936 223.467 165.27 225.2C168.67 226.867 171.336 229.467 173.27 233C175.203 236.467 176.17 240.933 176.17 246.4V277.2H160.57V248.8C160.57 244.467 159.603 241.267 157.67 239.2C155.803 237.133 153.136 236.1 149.67 236.1C147.203 236.1 144.97 236.633 142.97 237.7C141.036 238.7 139.503 240.267 138.37 242.4C137.303 244.533 136.77 247.267 136.77 250.6V277.2H121.17V203H136.77V238.3L133.27 233.8C135.203 230.2 137.97 227.433 141.57 225.5C145.17 223.567 149.27 222.6 153.87 222.6Z" fill="#007BFF"/>
<path d="M216.301 278C210.567 278 205.467 276.8 201.001 274.4C196.601 272 193.101 268.733 190.501 264.6C187.967 260.4 186.701 255.633 186.701 250.3C186.701 244.9 187.967 240.133 190.501 236C193.101 231.8 196.601 228.533 201.001 226.2C205.467 223.8 210.567 222.6 216.301 222.6C221.967 222.6 227.034 223.8 231.501 226.2C235.967 228.533 239.467 231.767 242.001 235.9C244.534 240.033 245.801 244.833 245.801 250.3C245.801 255.633 244.534 260.4 242.001 264.6C239.467 268.733 235.967 272 231.501 274.4C227.034 276.8 221.967 278 216.301 278ZM216.301 265.2C218.901 265.2 221.234 264.6 223.301 263.4C225.367 262.2 227.001 260.5 228.201 258.3C229.401 256.033 230.001 253.367 230.001 250.3C230.001 247.167 229.401 244.5 228.201 242.3C227.001 240.1 225.367 238.4 223.301 237.2C221.234 236 218.901 235.4 216.301 235.4C213.701 235.4 211.367 236 209.301 237.2C207.234 238.4 205.567 240.1 204.301 242.3C203.101 244.5 202.501 247.167 202.501 250.3C202.501 253.367 203.101 256.033 204.301 258.3C205.567 260.5 207.234 262.2 209.301 263.4C211.367 264.6 213.701 265.2 216.301 265.2Z" fill="#007BFF"/>
<path d="M281.828 278C276.095 278 270.995 276.8 266.528 274.4C262.128 272 258.628 268.733 256.028 264.6C253.495 260.4 252.228 255.633 252.228 250.3C252.228 244.9 253.495 240.133 256.028 236C258.628 231.8 262.128 228.533 266.528 226.2C270.995 223.8 276.095 222.6 281.828 222.6C287.495 222.6 292.561 223.8 297.028 226.2C301.495 228.533 304.995 231.767 307.528 235.9C310.061 240.033 311.328 244.833 311.328 250.3C311.328 255.633 310.061 260.4 307.528 264.6C304.995 268.733 301.495 272 297.028 274.4C292.561 276.8 287.495 278 281.828 278ZM281.828 265.2C284.428 265.2 286.761 264.6 288.828 263.4C290.895 262.2 292.528 260.5 293.728 258.3C294.928 256.033 295.528 253.367 295.528 250.3C295.528 247.167 294.928 244.5 293.728 242.3C292.528 240.1 290.895 238.4 288.828 237.2C286.761 236 284.428 235.4 281.828 235.4C279.228 235.4 276.895 236 274.828 237.2C272.761 238.4 271.095 240.1 269.828 242.3C268.628 244.5 268.028 247.167 268.028 250.3C268.028 253.367 268.628 256.033 269.828 258.3C271.095 260.5 272.761 262.2 274.828 263.4C276.895 264.6 279.228 265.2 281.828 265.2Z" fill="#007BFF"/>
<path d="M354.455 222.6C358.722 222.6 362.522 223.467 365.855 225.2C369.255 226.867 371.922 229.467 373.855 233C375.789 236.467 376.755 240.933 376.755 246.4V277.2H361.155V248.8C361.155 244.467 360.189 241.267 358.255 239.2C356.389 237.133 353.722 236.1 350.255 236.1C347.789 236.1 345.555 236.633 343.555 237.7C341.622 238.7 340.089 240.267 338.955 242.4C337.889 244.533 337.355 247.267 337.355 250.6V277.2H321.755V223.4H336.655V238.3L333.855 233.8C335.789 230.2 338.555 227.433 342.155 225.5C345.755 223.567 349.855 222.6 354.455 222.6Z" fill="#007BFF"/>
<path d="M416.587 297.4C411.52 297.4 406.62 296.767 401.887 295.5C397.22 294.3 393.32 292.467 390.187 290L396.387 278.8C398.653 280.667 401.52 282.133 404.987 283.2C408.52 284.333 411.987 284.9 415.387 284.9C420.92 284.9 424.92 283.667 427.387 281.2C429.92 278.733 431.187 275.067 431.187 270.2V262.1L432.187 248.6L431.987 235V223.4H446.787V268.2C446.787 278.2 444.187 285.567 438.987 290.3C433.787 295.033 426.32 297.4 416.587 297.4ZM414.187 274.6C409.187 274.6 404.653 273.533 400.587 271.4C396.587 269.2 393.353 266.167 390.887 262.3C388.487 258.367 387.287 253.8 387.287 248.6C387.287 243.333 388.487 238.767 390.887 234.9C393.353 230.967 396.587 227.933 400.587 225.8C404.653 223.667 409.187 222.6 414.187 222.6C418.72 222.6 422.72 223.533 426.187 225.4C429.653 227.2 432.353 230.033 434.287 233.9C436.22 237.7 437.187 242.6 437.187 248.6C437.187 254.533 436.22 259.433 434.287 263.3C432.353 267.1 429.653 269.933 426.187 271.8C422.72 273.667 418.72 274.6 414.187 274.6ZM417.287 261.8C420.02 261.8 422.453 261.267 424.587 260.2C426.72 259.067 428.387 257.5 429.587 255.5C430.787 253.5 431.387 251.2 431.387 248.6C431.387 245.933 430.787 243.633 429.587 241.7C428.387 239.7 426.72 238.167 424.587 237.1C422.453 235.967 420.02 235.4 417.287 235.4C414.553 235.4 412.12 235.967 409.987 237.1C407.853 238.167 406.153 239.7 404.887 241.7C403.687 243.633 403.087 245.933 403.087 248.6C403.087 251.2 403.687 253.5 404.887 255.5C406.153 257.5 407.853 259.067 409.987 260.2C412.12 261.267 414.553 261.8 417.287 261.8Z" fill="#007BFF"/>
</g>
<g filter="url(#filter1_d_23_12)">
<path d="M409.866 174.444L413.709 210.686L450.093 196.863L448.007 160.781L409.866 174.444ZM392.325 196.996L410.586 209.678L406.837 174.328L385.935 161.696L392.325 196.996ZM387.373 159.059L408.415 171.777L445.52 158.486L421.868 147.029L387.373 159.059Z" stroke="#007BFF" stroke-width="3" shape-rendering="crispEdges"/>
</g>
<path d="M385.87 195.644C369.074 208.406 363.703 209.957 344.707 215.907C377.297 211.101 373.854 210.936 390.607 202.701L385.87 195.644Z" fill="#007BFF"/>
<path d="M392.129 204.712C383.196 211.499 380.34 212.324 370.237 215.488C387.569 212.933 385.738 212.845 394.648 208.465L392.129 204.712Z" fill="#007BFF"/>
<path d="M423.369 169.066L413.153 161.384L421.099 158.43L431.883 166.112L434.153 181.475L426.207 184.43L423.369 169.066Z" fill="#007BFF"/>
<defs>
<filter id="filter0_d_23_12" x="49" y="203" width="401.787" height="102.4" filterUnits="userSpaceOnUse" color-interpolation-filters="sRGB">
<feFlood flood-opacity="0" result="BackgroundImageFix"/>
<feColorMatrix in="SourceAlpha" type="matrix" values="0 0 0 0 0 0 0 0 0 0 0 0 0 0 0 0 0 0 127 0" result="hardAlpha"/>
<feOffset dy="4"/>
<feGaussianBlur stdDeviation="2"/>
<feComposite in2="hardAlpha" operator="out"/>
<feColorMatrix type="matrix" values="0 0 0 0 0 0 0 0 0 0 0 0 0 0 0 0 0 0 0.25 0"/>
<feBlend mode="normal" in2="BackgroundImageFix" result="effect1_dropShadow_23_12"/>
<feBlend mode="normal" in="SourceGraphic" in2="effect1_dropShadow_23_12" result="shape"/>
</filter>
<filter id="filter1_d_23_12" x="379.867" y="145.408" width="75.7864" height="75.3719" filterUnits="userSpaceOnUse" color-interpolation-filters="sRGB">
<feFlood flood-opacity="0" result="BackgroundImageFix"/>
<feColorMatrix in="SourceAlpha" type="matrix" values="0 0 0 0 0 0 0 0 0 0 0 0 0 0 0 0 0 0 127 0" result="hardAlpha"/>
<feOffset dy="4"/>
<feGaussianBlur stdDeviation="2"/>
<feComposite in2="hardAlpha" operator="out"/>
<feColorMatrix type="matrix" values="0 0 0 0 0 0 0 0 0 0 0 0 0 0 0 0 0 0 0.25 0"/>
<feBlend mode="normal" in2="BackgroundImageFix" result="effect1_dropShadow_23_12"/>
<feBlend mode="normal" in="SourceGraphic" in2="effect1_dropShadow_23_12" result="shape"/>
</filter>
</defs>
</svg>
